<?xml version="1.0" encoding="utf-8"?>
<!-- Generator: Adobe Illustrator 26.3.1, SVG Export Plug-In . SVG Version: 6.00 Build 0)  -->
<svg version="1.1" id="Layer_1" xmlns="http://www.w3.org/2000/svg" xmlns:xlink="http://www.w3.org/1999/xlink" x="0px" y="0px"
	 viewBox="0 0 84 84" style="enable-background:new 0 0 84 84;" xml:space="preserve">
<style type="text/css">
	.st0{fill:#33CC33;}
	.st1{fill:#3399CC;}
	.st2{fill:#339933;}
</style>
<g>
	<g id="XMLID_00000008108427158370392650000007588581203896006309_">
		<g>
			<path d="M83.729,27.7904v52.77c0,0.77-0.5496,1.39-1.2323,1.39H48.7291c3.5195,0,6.8262-1.01,9.7074-2.77h22.8368v-50h1.2234
				C83.1793,29.1804,83.729,28.5604,83.729,27.7904z"/>
			<path d="M83.729,19.4604v8.33c0,0.77-0.5496,1.39-1.2323,1.39h-1.2234v-2.78v-5.56v-2.77h1.2234
				C83.1793,18.0704,83.729,18.6904,83.729,19.4604z"/>
			<path d="M83.729,9.7304v9.73c0-0.77-0.5496-1.39-1.2323-1.39h-1.2234v-6.95h-5.2216c-0.0266,0-0.0532,0-0.0798-0.01
				c2.695-0.07,4.7872-0.66,4.8049-1.38c0-0.72-2.1099-1.31-4.8049-1.38c0.0266-0.01,0.0532-0.01,0.0798-0.01h6.445
				C83.1793,8.3404,83.729,8.9604,83.729,9.7304z"/>
			<path class="st0" d="M81.2733,29.1804v50H58.4365c6.3564-3.9,10.6471-11.51,10.6117-20.25
				c-0.0621-12.62-9.1312-22.81-20.3191-22.81h-2.5532c-1.7021,0-3.0762-1.56-3.0762-3.47s1.3741-3.47,3.0762-3.47H81.2733z"/>
			<path d="M81.2733,26.4004v2.78H46.1759c-1.7021,0-3.0762,1.56-3.0762,3.47s1.3741,3.47,3.0762,3.47h2.5532
				c11.1879,0,20.257,10.19,20.3191,22.81c0.0355,8.74-4.2553,16.35-10.6117,20.25h-9.7074c9.9024,0,17.8989-9.07,17.8545-20.24
				c-0.0443-11.05-8.0585-20.04-17.8545-20.04h-2.5532c-3.0585,0-5.5408-2.81-5.5408-6.25c0-3.45,2.4823-6.25,5.5408-6.25H81.2733z"
				/>
			<path class="st1" d="M81.2733,20.8404v5.56H46.1759c-3.0585,0-5.5408,2.8-5.5408,6.25c0,3.44,2.4823,6.25,5.5408,6.25h2.5532
				c9.7961,0,17.8102,8.99,17.8545,20.04c0.0443,11.17-7.9521,20.24-17.8545,20.24H2.5413l-0.0709-20.84h43.7055
				c3.0496,0,5.5408-2.8,5.5408-6.25s-2.4911-6.25-5.5408-6.25h-8.0053c-6.1081,0-11.0815-5.61-11.0815-12.5
				s4.9734-12.5,11.0815-12.5H81.2733z M61.5659,59.7304c0-0.77-0.5496-1.39-1.2323-1.39c-0.6826,0-1.2323,0.62-1.2323,1.39
				c0,6.5-4.6986,11.8-10.461,11.8h-4.3085c-0.6826,0-1.2323,0.63-1.2323,1.39c0,0.77,0.5496,1.39,1.2323,1.39h4.3085
				C55.7681,74.3104,61.5659,67.7704,61.5659,59.7304z M43.0997,63.9004c0-0.77-0.5496-1.39-1.2323-1.39l-3.6968-0.01
				c-0.6826,0-1.2323,0.63-1.2323,1.39c0,0.77,0.5585,1.4,1.2323,1.4h3.6968C42.55,65.2904,43.0997,64.6604,43.0997,63.9004z
				 M34.4827,63.8904c0-0.77-0.5496-1.39-1.2323-1.39h-1.2323c-0.6826,0-1.2323,0.63-1.2323,1.39c0,0.77,0.5496,1.4,1.2323,1.4
				h1.2323C33.933,65.2904,34.4827,64.6604,34.4827,63.8904z M30.7859,70.8404c0-0.77-0.5585-1.39-1.2323-1.39h-9.8493
				c-0.6826,0-1.2323,0.62-1.2323,1.39c0,0.77,0.5496,1.39,1.2323,1.39h9.8493C30.2362,72.2304,30.7859,71.6104,30.7859,70.8404z
				 M28.3214,63.9004c0-0.77-0.5496-1.39-1.2323-1.39l-18.4662-0.01c-0.6826,0-1.2323,0.63-1.2323,1.39
				c0,0.77,0.5496,1.4,1.2323,1.4h18.4662C27.7717,65.2904,28.3214,64.6604,28.3214,63.9004z M16.0164,70.8404
				c0-0.77-0.5585-1.39-1.2411-1.39H13.543c-0.6826,0-1.2323,0.62-1.2323,1.39c0,0.77,0.5585,1.39,1.2323,1.39h1.2323
				C15.4579,72.2304,16.0076,71.6104,16.0164,70.8404z"/>
			<path d="M81.2733,18.0704v2.77H38.1706c-6.1081,0-11.0815,5.61-11.0815,12.5s4.9734,12.5,11.0815,12.5h8.0053
				c3.0496,0,5.5408,2.8,5.5408,6.25s-2.4911,6.25-5.5408,6.25H2.4704l0.0709,20.84H2.4615v-23.61h43.7144
				c1.6933,0,3.0762-1.56,3.0762-3.48c0-1.91-1.3741-3.47-3.0762-3.47h-8.0053c-7.4645,0-13.5461-6.85-13.5461-15.28
				c0-1.32,0.1507-2.59,0.4255-3.81c1.5071-6.58,6.8262-11.46,13.1205-11.46H81.2733z"/>
			<path class="st0" d="M81.2733,11.1204v6.95H38.1706c-6.2943,0-11.6134,4.88-13.1205,11.46l-2.4468-0.51
				c0.5053-2.06,0.789-4.53,0.789-7.49c0-3.5-0.4167-7.13-1.1702-10.41h17.4822c0.0709,0,0.133-0.01,0.2039-0.02
				c0.2926,0.01,0.6028,0.02,0.9131,0.02h34.6098c0.1862,0,0.3635,0,0.5408-0.01c0.0266,0.01,0.0532,0.01,0.0798,0.01H81.2733z"/>
			<path d="M75.9719,8.3504c2.695,0.07,4.8049,0.66,4.8049,1.38c-0.0177,0.72-2.1099,1.31-4.8049,1.38
				c-0.6472-0.04-1.1613-0.64-1.1613-1.38C74.8106,8.9904,75.3247,8.3904,75.9719,8.3504z"/>
			<path d="M75.4311,8.3404c0.1862,0,0.3635,0,0.5408,0.01c-0.6472,0.04-1.1613,0.64-1.1613,1.38c0,0.74,0.5142,1.34,1.1613,1.38
				c-0.1773,0.01-0.3546,0.01-0.5408,0.01H40.8213c-0.3103,0-0.6206-0.01-0.9131-0.02c0.5762-0.11,1.0284-0.68,1.0284-1.37
				c0-0.69-0.4521-1.27-1.0372-1.37c0.3014-0.01,0.6117-0.02,0.922-0.02H75.4311z"/>
			<path d="M60.3337,58.3404c0.6826,0,1.2323,0.62,1.2323,1.39c0,8.04-5.7979,14.58-12.9255,14.58h-4.3085
				c-0.6826,0-1.2323-0.62-1.2323-1.39c0-0.76,0.5496-1.39,1.2323-1.39h4.3085c5.7624,0,10.461-5.3,10.461-11.8
				C59.1014,58.9604,59.651,58.3404,60.3337,58.3404z"/>
			<path d="M48.7291,79.1804h9.7074c-2.8812,1.76-6.1879,2.77-9.7074,2.77H1.3179c-0.6826,0-1.2323-0.61-1.2323-1.38l-0.0887-22.85
				v-0.76c0-0.01,0-0.02,0-0.03c0.0089-0.36,0.1418-0.7,0.3635-0.95c0.2305-0.26,0.5408-0.41,0.8688-0.41h1.2323v23.61h0.0798
				H48.7291z"/>
			<path class="st0" d="M46.1759,48.6204c1.7021,0,3.0762,1.56,3.0762,3.47c0,1.92-1.383,3.48-3.0762,3.48H2.4615v-44.45h4.8847
				c-0.7713,3.28-1.1879,6.91-1.1879,10.41c0,10.59,3.75,15.05,7.3847,15.85v7.07h-2.4557c-0.6826,0-1.2323,0.62-1.2323,1.39
				s0.5496,1.39,1.2323,1.39h3.6879h3.6968c0.6826,0,1.2323-0.62,1.2323-1.39s-0.5585-1.39-1.2323-1.39h-2.4557v-7.08
				c2.6241-0.57,5.3014-3.05,6.5869-8.35l2.4468,0.51c-0.2748,1.22-0.4255,2.49-0.4255,3.81c0,8.43,6.0815,15.28,13.5461,15.28
				H46.1759z"/>
			<path d="M41.8674,62.5104c0.6826,0,1.2323,0.62,1.2323,1.39c0,0.76-0.5496,1.39-1.2323,1.39h-3.6968
				c-0.6738,0-1.2323-0.63-1.2323-1.4c0-0.76,0.5496-1.39,1.2323-1.39L41.8674,62.5104z"/>
			<path d="M39.8993,8.3604c0.5851,0.1,1.0372,0.68,1.0372,1.37c0,0.69-0.4521,1.26-1.0284,1.37
				c-2.5089-0.11-4.4326-0.68-4.4326-1.37C35.4756,9.0404,37.3816,8.4704,39.8993,8.3604z"/>
			<path d="M39.9082,11.1004c-0.0709,0.01-0.133,0.02-0.2039,0.02H22.2221c-0.2216-0.96-0.4699-1.89-0.7447-2.78h18.2269
				c0.0621,0,0.133,0.01,0.195,0.02c-2.5177,0.11-4.4237,0.68-4.4237,1.37C35.4756,10.4204,37.3993,10.9904,39.9082,11.1004z"/>
			<path d="M33.2504,62.5004c0.6826,0,1.2323,0.62,1.2323,1.39s-0.5496,1.4-1.2323,1.4h-1.2323c-0.6826,0-1.2323-0.63-1.2323-1.4
				c0-0.76,0.5496-1.39,1.2323-1.39H33.2504z"/>
			<path d="M29.5536,69.4504c0.6738,0,1.2323,0.62,1.2323,1.39c0,0.77-0.5496,1.39-1.2323,1.39h-9.8493
				c-0.6826,0-1.2323-0.62-1.2323-1.39c0-0.77,0.5496-1.39,1.2323-1.39H29.5536z"/>
			<path d="M27.0891,62.5104c0.6826,0,1.2323,0.62,1.2323,1.39c0,0.76-0.5496,1.39-1.2323,1.39H8.6228
				c-0.6826,0-1.2323-0.63-1.2323-1.4c0-0.76,0.5496-1.39,1.2323-1.39L27.0891,62.5104z"/>
			<path d="M23.3923,21.5304c0,2.96-0.2837,5.43-0.789,7.49c-1.2855,5.3-3.9628,7.78-6.5869,8.35v-2.84
				c3.7411-1.23,4.9202-8.05,4.9202-13c0-4.13-0.594-8.07-1.4894-11.26c0.1862,0.5,0.6294,0.85,1.1347,0.85h1.6401
				C22.9756,14.4004,23.3923,18.0304,23.3923,21.5304z"/>
			<path d="M22.2221,11.1204H20.582c-0.5053,0-0.9486-0.35-1.1347-0.85c-0.0266-0.09-0.0532-0.18-0.0709-0.26
				c-0.0177-0.09-0.0266-0.18-0.0266-0.28c0-0.77,0.5496-1.39,1.2323-1.39h0.8954C21.7522,9.2304,22.0005,10.1604,22.2221,11.1204z"
				/>
			<path d="M21.4774,8.3404H20.582c-0.6826,0-1.2323,0.62-1.2323,1.39c0,0.1,0.0089,0.19,0.0266,0.28
				c-1.25-4.34-3.0496-7.23-4.601-7.23s-3.3422,2.89-4.5922,7.21c0.0177-0.08,0.0266-0.17,0.0266-0.26
				c0-0.77-0.5585-1.39-1.2323-1.39H8.0909c0.0975-0.33,0.2128-0.66,0.3191-0.98c3.3954-9.74,9.2907-9.89,12.7393,0
				C21.2646,7.6804,21.371,8.0104,21.4774,8.3404z"/>
			<path class="st2" d="M20.9366,21.5304c0,4.95-1.1791,11.77-4.9202,13v-10.91c0-0.77-0.5585-1.39-1.2411-1.39
				c-0.6738,0-1.2323,0.62-1.2323,1.39v10.91c-3.7145-1.23-4.9202-8.05-4.9202-13c0-4.11,0.594-8.04,1.4716-11.23
				c0.0355-0.1,0.0621-0.21,0.0887-0.31c1.25-4.32,3.0408-7.21,4.5922-7.21s3.3511,2.89,4.601,7.23
				c0.0177,0.08,0.0443,0.17,0.0709,0.26C20.3427,13.4604,20.9366,17.4004,20.9366,21.5304z"/>
			<path d="M18.4721,44.4504c0.6738,0,1.2323,0.62,1.2323,1.39s-0.5496,1.39-1.2323,1.39h-3.6968c0.6826,0,1.2323-0.62,1.2411-1.39
				v-1.39H18.4721z"/>
			<path d="M16.0164,44.4504v1.39c-0.0089,0.77-0.5585,1.39-1.2411,1.39c-0.6738,0-1.2323-0.62-1.2323-1.39v-1.39H16.0164z"/>
			<path d="M16.0164,37.3704v7.08H13.543v-7.07c0.4167,0.09,0.8245,0.13,1.2323,0.13S15.5998,37.4704,16.0164,37.3704z"/>
			<path d="M16.0164,34.5304v2.84c-0.4167,0.1-0.8333,0.14-1.2411,0.14s-0.8156-0.04-1.2323-0.13v-2.85
				c0.3812,0.13,0.789,0.2,1.2323,0.2S15.6352,34.6604,16.0164,34.5304z"/>
			<path d="M16.0164,23.6204v10.91c-0.3812,0.13-0.7979,0.2-1.2411,0.2s-0.8511-0.07-1.2323-0.2v-10.91
				c0-0.77,0.5585-1.39,1.2323-1.39C15.4579,22.2304,16.0164,22.8504,16.0164,23.6204z"/>
			<path d="M14.7753,69.4504c0.6826,0,1.2411,0.62,1.2411,1.39c-0.0089,0.77-0.5585,1.39-1.2411,1.39H13.543
				c-0.6738,0-1.2323-0.62-1.2323-1.39c0-0.77,0.5496-1.39,1.2323-1.39H14.7753z"/>
			<path d="M14.7753,47.2304h-3.6879c-0.6826,0-1.2323-0.62-1.2323-1.39s0.5496-1.39,1.2323-1.39h2.4557v1.39
				C13.543,46.6104,14.1015,47.2304,14.7753,47.2304z"/>
			<path d="M13.543,34.5304v2.85c-3.6347-0.8-7.3847-5.26-7.3847-15.85c0-3.5,0.4167-7.13,1.1879-10.41h1.6312
				c0.5053,0,0.9308-0.33,1.117-0.82c-0.8777,3.19-1.4716,7.12-1.4716,11.23C8.6228,26.4804,9.8285,33.3004,13.543,34.5304z"/>
			<path d="M10.2097,9.7304c0,0.09-0.0089,0.18-0.0266,0.26c-0.0266,0.1-0.0532,0.21-0.0887,0.31
				c-0.1862,0.49-0.6117,0.82-1.117,0.82H7.3463c0.2128-0.96,0.4699-1.89,0.7447-2.78h0.8865
				C9.6512,8.3404,10.2097,8.9604,10.2097,9.7304z"/>
			<path d="M1.2381,8.3404h6.8528c-0.2748,0.89-0.5319,1.82-0.7447,2.78H2.4615v44.45H1.2292c-0.328,0-0.6383,0.15-0.8688,0.41
				c-0.2216,0.25-0.3546,0.59-0.3635,0.95l0.0089-47.2C0.0058,8.9604,0.5555,8.3404,1.2381,8.3404z"/>
			<path d="M1.3179,81.9504H1.2292c-0.6738,0-1.2323-0.62-1.2323-1.39v-22.84l0.0887,22.85
				C0.0856,81.3404,0.6353,81.9504,1.3179,81.9504z"/>
		</g>
	</g>
</g>
</svg>
