<svg fill="#000000" height="24" width="24" version="1.1" id="Layer_1" xmlns="http://www.w3.org/2000/svg" xmlns:xlink="http://www.w3.org/1999/xlink" viewBox="0 0 512 512" xml:space="preserve"><g id="SVGRepo_bgCarrier" stroke-width="0"></g><g id="SVGRepo_tracerCarrier" stroke-linecap="round" stroke-linejoin="round"></g><g id="SVGRepo_iconCarrier"> <g> <g> <path d="M469.104,164.149c-3.812-9.012-10.141-16.629-18.128-22.026c-3.995-2.698-8.411-4.841-13.131-6.307 c-4.717-1.467-9.738-2.253-14.889-2.252c-6.869-0.002-13.5,1.399-19.503,3.939c-9.012,3.812-16.629,10.141-22.026,18.128 c-2.698,3.995-4.841,8.411-6.306,13.131c-1.467,4.717-2.253,9.738-2.252,14.889v116.87h-33.391V87.06 c0-10.22-1.743-20.215-4.98-29.587c-4.861-14.052-13.075-26.746-24.075-36.698c-5.5-4.971-11.703-9.246-18.504-12.597 c-6.8-3.352-14.201-5.774-22.018-7.046C265.226,0.371,260.578,0,256,0c-11.48-0.002-22.502,2.336-32.498,6.567 c-15.002,6.35-27.715,16.913-36.713,30.227c-4.499,6.658-8.068,14.012-10.512,21.867c-2.444,7.854-3.758,16.209-3.757,24.818 v150.261H139.13V116.87c0.002-6.872-1.401-13.505-3.942-19.507c-3.815-9.012-10.146-16.627-18.133-22.023 c-3.995-2.697-8.41-4.84-13.127-6.305c-4.716-1.466-9.736-2.253-14.885-2.252c-6.867-0.002-13.496,1.4-19.497,3.939 c-9.01,3.812-16.627,10.139-22.025,18.125c-2.699,3.995-4.843,8.411-6.311,13.131c-1.468,4.718-2.255,9.74-2.254,14.893v133.565 c-0.002,11.48,2.336,22.502,6.567,32.499c6.349,15.003,16.912,27.715,30.226,36.713c6.658,4.499,14.012,8.067,21.868,10.51 c7.854,2.444,16.209,3.757,24.818,3.757h50.087v144.696h-56.765c-9.22,0-16.696,7.475-16.696,16.696S106.536,512,115.757,512 h267.13c9.22,0,16.696-7.475,16.696-16.696s-7.475-16.696-16.696-16.696h-43.409v-77.913h50.087 c11.48,0,22.502-2.336,32.499-6.567c15.003-6.349,27.715-16.912,36.713-30.226c4.499-6.658,8.067-14.012,10.51-21.868 c2.444-7.854,3.757-16.209,3.757-24.818V183.652C473.043,176.784,471.644,170.152,469.104,164.149z M439.653,317.219 c-0.002,6.962-1.401,13.508-3.929,19.49c-3.789,8.967-10.162,16.648-18.165,22.052c-4,2.703-8.4,4.836-13.092,6.295 c-4.696,1.458-9.68,2.248-14.903,2.248h-50.087c-4.565,0-8.999,0.934-13.003,2.631c-6.014,2.548-11.078,6.758-14.677,12.08 c-1.799,2.661-3.229,5.608-4.208,8.757c-0.981,3.148-1.505,6.501-1.504,9.923v77.913H205.913V333.913 c0-4.565-0.935-8.999-2.631-13.003c-2.548-6.014-6.76-11.078-12.08-14.677c-2.661-1.798-5.607-3.229-8.757-4.208 c-3.148-0.979-6.501-1.504-9.923-1.504h-50.087c-6.962,0-13.508-1.401-19.491-3.929c-8.967-3.789-16.648-10.162-22.052-18.165 c-2.703-4-4.836-8.4-6.295-13.092c-1.459-4.695-2.248-9.679-2.249-14.901V116.87c0.002-2.356,0.467-4.512,1.306-6.5 c1.254-2.974,3.391-5.554,6.064-7.355c1.336-0.902,2.796-1.608,4.352-2.093c1.558-0.483,3.208-0.747,4.974-0.748 c2.353,0.002,4.508,0.467,6.497,1.304c2.975,1.253,5.555,3.39,7.357,6.062c0.902,1.335,1.609,2.796,2.093,4.351 c0.483,1.557,0.747,3.209,0.748,4.978v124.859c-0.002,3.477,0.72,6.865,2.016,9.908c1.948,4.574,5.136,8.397,9.166,11.131 c2.017,1.366,4.254,2.459,6.654,3.209c2.397,0.751,4.959,1.154,7.565,1.154h58.079c4.396,0,8.696-1.781,11.806-4.89 c3.11-3.109,4.89-7.408,4.89-11.805V83.478c0.002-6.961,1.401-13.507,3.929-19.489c3.789-8.967,10.163-16.649,18.166-22.053 c4-2.702,8.4-4.836,13.092-6.295c4.694-1.459,9.678-2.248,14.9-2.249c2.777,0,5.624,0.225,8.537,0.698 c5.993,0.978,11.472,3.092,16.452,6.16c7.455,4.591,13.768,11.405,18.19,19.577c4.424,8.163,6.908,17.616,6.908,27.234v230.157 c0,4.397,1.781,8.697,4.89,11.806s7.409,4.89,11.806,4.89h58.076c3.477,0,6.865-0.72,9.908-2.017 c4.573-1.948,8.397-5.136,11.13-9.167c1.366-2.017,2.459-4.254,3.209-6.654c0.751-2.397,1.154-4.959,1.154-7.565V183.652 c0-2.36,0.467-4.517,1.306-6.505c1.253-2.974,3.388-5.551,6.058-7.352c1.335-0.9,2.795-1.607,4.351-2.091 c1.558-0.483,3.21-0.747,4.982-0.748c2.36,0.002,4.517,0.467,6.505,1.306c2.974,1.253,5.551,3.388,7.352,6.058 c0.9,1.335,1.607,2.795,2.091,4.351c0.483,1.558,0.747,3.211,0.748,4.982V317.219z"></path> </g> </g> </g></svg>