<svg width="124" height="91" viewBox="0 0 124 91" fill="none" xmlns="http://www.w3.org/2000/svg">
<path d="M1.81285 66.1136C1.44005 66.2831 0.853705 66.2798 0.520166 66.0806C0.00426503 65.7573 0.0523486 65.3486 0.586966 63.8728C0.92711 62.8993 2.22895 60.7957 3.45633 59.2209C4.6837 57.646 6.95758 55.1274 8.54492 53.6318C10.0923 52.1274 13.5652 49.4954 16.2981 47.7489C19.2174 45.9175 23.0071 43.9424 25.5726 42.9557C27.9518 42.0538 31.2013 41.008 32.7908 40.6451C35.002 40.1256 36.3523 40.0874 38.7072 40.4382C41.3733 40.8994 41.8756 41.0939 42.9305 42.2068C43.7495 43.0581 44.1957 44.0789 44.3315 45.3668C44.4313 46.4371 44.5263 47.3387 44.5087 47.4187C44.4911 47.4986 46.9829 47.4183 50.0075 47.2036C53.0233 47.029 57.931 46.6419 60.902 46.2896C63.8642 45.9774 67.8432 45.4277 69.7615 45.0953C71.671 44.8029 75.2276 44.0763 77.6563 43.5208C80.085 42.9653 84.0985 41.8781 86.58 41.0826C89.0616 40.2871 92.4351 39.059 94.0951 38.3761C95.7551 37.6933 98.4975 36.2843 100.188 35.2727C101.887 34.221 104.203 32.4664 105.373 31.3403C106.504 30.2054 107.806 28.4793 108.235 27.4835C108.713 26.4565 109.013 25.4742 108.946 25.2078C108.879 24.9414 108.186 25.0405 107.352 25.4019C106.526 25.7233 104.489 26.7845 102.847 27.7649C101.126 28.7277 99.5146 29.3794 99.1723 29.2201C98.7812 29.0921 98.5093 28.6129 98.5261 28.1553C98.5295 27.569 99.5983 26.714 102.11 25.2122C104.035 24.0846 106.534 22.8316 107.657 22.4918C108.78 22.152 110.018 21.6699 110.4 21.4604C111.026 21.0949 111.417 21.223 113.182 22.1568C114.805 22.9754 115.593 23.7779 116.831 25.7699C117.696 27.1764 119.078 29.6612 119.929 31.3164C120.75 32.9229 121.313 34.5564 121.145 34.9388C121.017 35.3299 120.506 35.553 119.889 35.5009C119.031 35.396 118.483 34.6463 116.628 30.8831C115.366 28.4247 113.976 25.9798 113.495 25.4966C113.023 24.9733 112.556 24.6189 112.41 24.7125C112.303 24.8148 111.79 26.0018 111.233 27.3888C110.676 28.7758 109.463 30.857 108.533 32.036C107.562 33.2061 105.704 34.9776 104.36 35.9397C103.016 36.9018 100.456 38.4348 98.6546 39.38C96.8617 40.2853 93.2178 41.7893 90.541 42.7095C87.8243 43.621 83.2916 44.9713 80.4413 45.7275C77.5598 46.435 72.7688 47.4348 69.7626 47.9471C66.7651 48.4193 61.5382 49.1135 58.1185 49.4089C54.6987 49.7043 50.1286 50.0818 43.9106 50.5159L42.9023 52.8099C42.3317 54.0681 41.3355 55.7358 40.7018 56.5189C40.0681 57.3019 38.924 58.308 38.1608 58.727C37.4288 59.1949 36.3368 59.5834 35.7417 59.6201C35.1065 59.648 34.253 59.3343 33.6436 58.8646C33.0653 58.4437 32.4639 57.5565 32.316 56.8949C32.137 56.1846 32.1524 54.9719 32.3285 54.172C32.5263 53.0833 33.1552 52.1315 34.3833 50.9342C35.5938 49.8169 36.8538 49.046 38.3634 48.6655C39.6153 48.3121 40.8497 48.0388 41.1561 47.9804C41.6224 47.9573 41.6929 47.6373 41.5436 46.2206C41.4318 45.0778 41.0511 44.2671 40.4017 43.7886C39.6498 43.2037 38.8499 43.0276 37.3085 42.9817C36.1758 42.9839 33.9775 43.2547 32.4679 43.6352C30.9096 44.0469 27.8289 45.0879 25.5297 46.0074C23.2793 46.8958 19.6361 48.7774 17.4488 50.1409C15.3016 51.5132 12.2454 53.7757 10.7245 55.1601C9.20354 56.5445 6.94731 58.9831 5.71993 60.558C4.45256 62.124 3.25231 63.9565 2.99143 64.57C2.72173 65.2235 2.19446 65.9041 1.81285 66.1136Z" fill="#130A44"/>
<path d="M36.4022 56.6203C35.9094 56.7634 35.3319 56.7201 35.1583 56.5561C34.9448 56.3833 34.9345 55.6682 35.093 54.9482C35.2116 54.2195 35.8005 53.2589 36.4125 52.7647C36.9934 52.2216 38.0406 51.6554 38.7909 51.4852C39.5013 51.3061 40.2029 51.167 40.3229 51.1935C40.4429 51.2199 40.4524 51.5575 40.3643 51.9574C40.2851 52.3174 39.5633 53.5003 38.748 54.5369C37.9415 55.5335 36.8862 56.5172 36.4022 56.6203Z" fill="white"/>
</svg>
