<?xml version="1.0" encoding="UTF-8"?>
<svg width="128pt" height="128pt" version="1.1" viewBox="0 0 128 128" xmlns="http://www.w3.org/2000/svg">
 <g>
  <path d="m65.094 89.344c0.41797 0.023438 0.94531 0.046875 1.6289 0.082031 1.9727 0.097657 3.2461 0.14453 4.582 0.14453 4.1055 0 6.9648-0.49219 8.4258-1.6016 0.74219-0.74219 1.2227-1.4414 1.5156-2.168 0.35938-0.89062 0.44141-1.6211 0.47656-3.4922 0.125-6.8555 2.0234-11.992 10.059-21.906 4.0156-5.6016 6.207-12.301 6.207-19.328 0-18.434-15.055-33.379-33.621-33.379-18.57 0-33.625 14.945-33.625 33.379 0 7.2461 2.332 14.141 6.5938 19.859 7.4336 10.691 9.1094 15.75 8.7695 21.203-0.070313 1.1328-0.074219 1.4844 0 1.9766 0.16016 1.0625 0.77344 2.0625 2.2578 3.4766 1.2148 1.1562 3.7188 1.7227 7.3086 1.8242 1.3633 0.039063 2.6445 0.015626 4.6445-0.058593 1.9609-0.070313 2.0742-0.074219 2.6445-0.074219 0.29687 0 0.52734 0 0.82422 0.007812 0.20312-1.4648 0.35938-2.8477 0.47656-4.1406l-0.48047-0.082032c-5.1797-0.90234-7.7305-3.6445-7.2812-7.9727l0.11719-1.1406 1.1328 0.18359c3.4844 0.55469 5.7812 2.0039 6.7734 4.2617 0.023437-2.7695-0.22656-4.9375-0.75-6.4922-0.42578-0.65234-0.80859-1.2891-1.1484-1.9141l-0.17578 0.0625c-4.9336 1.8125-8.5117 0.71094-10.289-3.2617l-0.46875-1.0469 1.0703-0.41016c3.3711-1.2852 6.1289-1.1445 8.1289 0.40625-0.85156-3.2812-0.50391-6.4922 0.84766-10.32-0.57031-2.0859-2.3711-2.3281-7.1523-1.6328 2.1445 4.793 1.2969 8.4375-2.543 10.488l-1.0078 0.53906-0.48438-1.0391c-1.9102-4.1094-1.5-7.418 1.207-9.6211-2.2852 0.22656-3.4727 0.066406-4.5859-0.65234-0.93359-0.60156-1.4805-1.5547-1.6406-2.9062l-0.55859 0.011719c-6.2695 0.14062-9.875-2.5-10.324-7.7109l-0.11719-1.3711 1.3672-0.046875c5.2734-0.19141 8.6758 1.7031 9.9023 5.5391 0.17188-0.83203 0.41406-1.7422 0.73047-2.7344 1.25-3.168 1.418-5.3711 0.61719-6.6484l-0.82422-0.097657c-6.2305-0.73047-9.4297-3.8516-9.1484-9.0742l0.070313-1.3711 1.3633 0.14062c4.1211 0.42969 6.9219 1.9727 8.2617 4.5391 0.16406-2.5234 1.5352-4.418 4.0938-5.5625l1.0469-0.46875 0.40625 1.0703c1.8516 4.8398 0.75391 8.4219-3.2383 10.297l-0.66406 0.3125c0.66016 1.4492 0.54688 3.4531-0.28125 5.9844 2.7305-3.0195 5.8438-3.6328 9.0898-1.6914l0.98047 0.58594-0.64063 0.94922c-2.9062 4.293-6.4648 5.4492-10.293 3.2539l-0.10547-0.0625c-0.85156 3.375-0.55469 5.2227 0.61719 5.9805 1.0781 0.69531 2.5508 0.66797 6.2539 0.125 0.0625-0.011719 0.0625-0.011719 0.12109-0.019531 4.5586-0.66797 6.9844-0.57812 8.1484 1.1484 0.44141-1.0859 0.95703-2.2266 1.5352-3.4297 2.1914-4.543 2.7188-5.8008 3.1094-7.875 0.003907-0.019532 0.007813-0.039063 0.007813-0.054688l-0.125 0.019532c-6.1914 1.0117-10.129-1.1016-11.297-6.1992l-0.30859-1.3398 1.3477-0.23828c4.8672-0.86719 8.3633 0.3125 10.223 3.4453-0.26563-0.91016-0.6875-1.8008-1.2852-2.6953-2.4492-1.5039-3.918-3.1914-4.3516-5.0469l-0.80469-0.09375c-6.2305-0.73047-9.4297-3.8516-9.1523-9.0742l0.074218-1.3711 1.3594 0.14062c3.6445 0.37891 6.2578 1.6289 7.7383 3.6836 0.19922-3.2773 1.9805-5.6367 5.3164-6.9141l1.2852-0.49219 0.42188 1.3008c1.918 5.8789 0.375 10.074-4.5391 12.059l-0.47656 0.19141c0.21484 1.3672 1.1523 2.6523 2.8477 3.875l0.011719-0.046875c1.3789-6.1172 4.8164-8.9766 9.9805-8.1523l1.3594 0.21875-0.28516 1.3359c-1.2266 5.8086-4.4414 8.6758-9.3359 8.2461 1.4023 2.3672 1.7656 4.7852 1.2695 7.4375-0.34766 1.8555-0.78125 3.0625-2.1992 6.0742 4.332-2.0859 7.793-1.3828 9.9961 2.1328l0.60938 0.96875-1.0039 0.55469c-4.4805 2.4727-8.1445 1.9297-10.559-1.6445-0.019531 0.035156-0.039062 0.074219-0.054687 0.11328-0.82031 1.6953-1.4961 3.2461-2.0273 4.6953 0.007812 0.027344 0.011719 0.054688 0.015625 0.082031l-0.046875 0.011719c-1.9805 5.4727-1.8125 9.4961 1.0664 14.418 0.66797-2.8477 2.7227-5.1484 6.1289-6.9102-4.3672-1.0977-6.4844-3.7383-6.0742-7.7148l0.11719-1.1406 1.1328 0.17969c4.9648 0.79688 7.5156 3.3984 7.3203 7.5703 1.6016-0.60547 3.418-1.1289 5.4453-1.5625 4.9375-1.5234 6.125-4.9648 3.5352-10.699l-0.83984-0.039063c-6.2656-0.29687-9.6758-3.1875-9.7617-8.4141l-0.023437-1.375 1.3672 0.046875c4.5781 0.15234 7.6367 1.7773 8.9922 4.7578 0.31641-3.2188 2.1055-5.2969 5.3203-6.043l1.1133-0.26172 0.19922 1.1289c0.89063 5.1055-0.87109 8.4102-5.1445 9.4883l-0.10547 0.027343c0.88672 1.9375 1.3828 3.6875 1.4844 5.2305 1.4766-4.2344 4.2891-6.1094 8.207-5.3516l1.125 0.21484-0.28125 1.1133c-1.2578 5.0234-4.2109 7.3281-8.5586 6.5742l-0.69922-0.12109c-0.61328 2.3359-2.4766 4.0117-5.5977 4.9727-2.2539 0.48438-4.2148 1.0664-5.8906 1.75l-0.011719 0.125-0.20703-0.035156c-2.582 1.0781-4.4648 2.3984-5.6602 3.957 4.2109-1.9375 7.5781-1.1914 9.7383 2.25l0.60938 0.97266-1.0039 0.55078c-4.457 2.4648-8.1055 1.9375-10.52-1.582-0.23047 0.68359-0.35938 1.4062-0.38281 2.1641h-0.085937c0.95703 3.1992 0.94141 8.3555-0.023438 15.508zm11.07 23.23c0.61719 0 1.0938-0.53906 1.1719-1.2891 0.074218-0.69922 0.13672-1.1445-0.41016-1.1562h-0.007812-25.531c-0.73828 0-1.0977 0.46484-1 1.1328 0.10938 0.74609 0.74609 1.3125 1.7031 1.3125zm-1.2539 1.2969h-21.359c1.7695 1.9766 3.4922 4.0039 5.1719 6.0859h11.914c1.9414-2.7734 3.3672-4.8047 4.2734-6.0859zm1.8711-5.0352c0.71484-0.003907 1.0586-0.64844 1.1055-1.5078 0.046875-0.85547-0.41016-1.4336-1.2852-1.4453h-0.058593v-0.003906l-25.137-0.16016c-1.6484 0.12891-1.6445 2.7695 0.042969 3.1172zm0.14062 0.007812v0.64453l0.003906-0.64062s0-0.003906-0.003906-0.003906zm-0.23828-4.2578c0.9375-0.035157 1.4844-0.60938 1.5195-1.3906s-0.45703-1.3633-1.2812-1.3633v-1.293c0.71484 0 1.3203 0.24219 1.7617 0.64453-0.42969 0.39453-1.0156 0.64844-1.7617 0.64844v-1.293c1.7695 0 1.7695-2.9883 0.003906-2.9883h-0.003906-25.207v-1.2969h25.207v1.043l0.003906-1.043c0.82031 0 1.4648-1.1875 1.5273-2.8906 0.0625-1.6211-0.45703-2.8516-1.0078-2.8516v-0.20312c-1.6445 0.39062-3.6875 0.55859-6.1406 0.55469-1.3633 0-2.6562-0.042969-4.6484-0.14453-2.6289-0.13281-2.9141-0.14453-3.6953-0.14453-0.54688 0-0.66016 0.003906-2.5938 0.078125-2.0273 0.074218-3.332 0.097656-4.7344 0.054687-1.4688-0.039062-2.7773-0.15625-3.918-0.35938v0.16406c-1.0234 0-1.6055 1.1211-1.4922 2.8281 0.10938 1.625 0.83594 2.9141 1.4922 2.9141v1.2969c-0.59766 0-1.125-0.27734-1.5586-0.74609 0.40625-0.34375 0.93359-0.55078 1.5586-0.55078v1.2969c-0.73047 0-1.1875 0.60547-1.1797 1.4844 0.011719 0.84375 0.44922 1.4492 1.0938 1.5 0.035156 0 0.070313 0 0.10547 0.003906h25.188v1.293h-25.207c-0.042969 0-0.085938 0-0.13281-0.003906-0.66797 0.007813-1.0664 0.50391-1.0859 1.2734-0.023438 0.77344 0.36328 1.3281 0.88281 1.3242l0.007813 0.21094 0.003906-0.21094zm-26.746-14.676c-1.0273-0.33984-1.8516-0.79297-2.4766-1.3867-1.6758-1.5938-2.4375-2.8359-2.6445-4.2188-0.09375-0.61719-0.085937-1.0156-0.011718-2.2461 0.32031-5.1406-1.2617-9.9219-8.5273-20.371-4.4141-5.9219-6.8359-13.086-6.8359-20.613 0-19.148 15.637-34.676 34.926-34.676 19.289 0 34.926 15.527 34.926 34.676 0 7.2969-2.2773 14.258-6.4727 20.109-7.8789 9.7227-9.6758 14.582-9.793 21.148-0.039063 2.0273-0.13281 2.8672-0.57031 3.9492-0.36328 0.89453-0.94141 1.7383-1.8672 2.6562-0.49219 0.375-1.0742 0.69141-1.7461 0.94531 0.65234 0.75391 0.96875 2.0703 0.91406 3.5273-0.054687 1.4297-0.45312 2.6719-1.168 3.4141 1.25 1.043 1.2812 3.2578 0.09375 4.3594 0.55469 0.5 0.85938 1.2461 0.82031 2.0703-0.035156 0.83984-0.42188 1.5703-1.0547 2.0469 0.51562 0.51562 0.78516 1.2617 0.73828 2.0977-0.046875 0.875-0.42578 1.6641-1.0312 2.168 0.37891 0.47266 0.55469 1.1367 0.47656 1.8555-0.12891 1.2305-0.94141 2.25-2.1133 2.4219-0.83984 1.1875-2.5078 3.5625-5.0078 7.1289l-0.19531 0.27734h-13.219l-0.19531-0.24219c-1.9766-2.4531-4.0117-4.8359-6.1133-7.1484-1.4609-0.125-2.5039-1.125-2.6914-2.4141-0.12109-0.82422 0.14453-1.5742 0.69531-2.0547-1.2305-1.1719-1.2344-3.3477 0.023437-4.3906-0.41797-0.49219-0.64453-1.1875-0.625-1.9375 0.023438-0.78906 0.31641-1.4844 0.82031-1.9453-0.48828-0.51172-0.76953-1.25-0.77734-2.0664-0.011719-0.91797 0.32031-1.7344 0.92188-2.2461-0.69531-0.75391-1.1406-2.0078-1.2344-3.3789-0.097656-1.4805 0.25-2.7695 1.0156-3.5156zm13.344-63.973 0.33594-0.89062-1.1172-2.1445c-0.24609 0.46094-0.42969 0.95703-0.55078 1.4922zm1.2031 0.49609 2.2227-0.35547c0.14062-0.47266 0.23438-0.97656 0.27344-1.5117l-2.1719 1.0117zm-2.3672 2.5781 0.64062-1.6914-1-1.1602c-0.003906 0.87109 0.11719 1.8242 0.35938 2.8516zm1.0156 0.99609c1.3125-0.64062 2.293-1.4766 2.9375-2.5156l-2.1133 0.33984zm1.1016-6.5938 1.2188-3.2227c-0.84766 0.41406-1.5508 0.92188-2.1055 1.5234zm1.2305 0.42969 1.5039-0.70312c-0.058594-0.69922-0.19141-1.4414-0.39453-2.2305zm4.0312 8.5938 0.73828-0.60156 0.10547-2.4141c-0.44141 0.27344-0.85156 0.61328-1.2266 1.0156zm0.79297 1.0352 2.1055 0.80078c0.35938-0.33984 0.69141-0.73047 0.99219-1.1719l-2.3867-0.21094zm-3.3359 1.0469 1.3984-1.1445-0.28516-1.5039c-0.4375 0.75391-0.80859 1.6367-1.1133 2.6484zm0.38281 1.3711c1.457 0.10156 2.7227-0.13281 3.8008-0.71094l-2-0.76172zm4.25-5.1602 2.668-2.1836c-0.94141-0.0625-1.8047 0.023437-2.5859 0.26562zm0.85156 0.98438 1.6523 0.14453c0.29688-0.63281 0.55859-1.3438 0.77344-2.1289zm-15.48-3.3555-0.67578-0.66797-2.4141 0.14844c0.32031 0.41016 0.69922 0.77734 1.1367 1.1094zm0.94531-0.89453 0.57812-2.1758c-0.375-0.32422-0.80078-0.61328-1.2734-0.86719l0.042969 2.3984zm1.3906 3.2109-1.2852-1.2734-1.4648 0.44141c0.79688 0.35547 1.7109 0.63281 2.75 0.83203zm1.3203-0.52734c-0.046875-1.457-0.41406-2.6953-1.1016-3.707l-0.55078 2.0703zm-5.5742-3.6875-2.4492-2.4258c0.035156 0.94531 0.21094 1.793 0.53516 2.5469zm0.89453-0.94922-0.03125-1.6562c-0.66406-0.23438-1.3945-0.41406-2.1992-0.55078zm6.5859 16.129-0.83594-0.45703-2.2773 0.80859c0.42188 0.30469 0.88672 0.55469 1.3984 0.75391zm0.66016-1.125-0.042969-2.25c-0.44922-0.20703-0.93359-0.36719-1.4609-0.48047l0.70312 2.293zm2.2227 2.7031-1.5859-0.86719-1.2852 0.82813c0.86328 0.125 1.8203 0.13672 2.8711 0.039062zm1.1289-0.86719c-0.44922-1.3906-1.1445-2.4766-2.082-3.2578l0.039062 2.1406zm-6.375-2.0078-3.0234-1.6562c0.28906 0.89844 0.69531 1.6641 1.2148 2.2969zm0.59375-1.1602-0.48438-1.582c-0.70312-0.042968-1.457-0.015624-2.2656 0.078126zm-18.602-4.1211-2.4102 0.14844c0.31641 0.41016 0.69531 0.77734 1.1367 1.1094l1.9492-0.58984zm0.97266-0.87109 0.64844 0.64453 0.57812-2.1758c-0.375-0.32422-0.79688-0.61328-1.2695-0.86328zm0.75391 2.582-1.4648 0.44141c0.79688 0.35547 1.7148 0.63281 2.75 0.83203zm0.95703-0.89063 1.6523 1.6367c-0.050781-1.457-0.41797-2.6953-1.1055-3.707zm-6.3711-4.4766c0.03125 0.94531 0.21094 1.793 0.53125 2.5469l1.918-0.12109zm1.1133-0.72656 2.2266 2.2031-0.03125-1.6562c-0.66016-0.23437-1.3945-0.41406-2.1953-0.54687zm0.64062 18.078-2.3672 0.48047c0.375 0.36328 0.80078 0.67578 1.2812 0.94141l1.8516-0.85547zm0.83984-1 0.73437 0.54688 0.26953-2.2344c-0.41406-0.26562-0.875-0.49219-1.3789-0.67969zm1.1094 2.4531-1.3906 0.64062c0.83984 0.24219 1.7852 0.39063 2.8398 0.44141zm0.82031-1.0117 1.8672 1.3906c-0.25391-1.4375-0.78906-2.6133-1.6094-3.5195zm-6.9297-3.5469c0.16406 0.92969 0.45703 1.7461 0.88281 2.4453l1.8789-0.38281zm1-0.87891 2.5117 1.875-0.25781-1.6367c-0.69141-0.13672-1.4414-0.21875-2.2539-0.23828zm12.145-10.336 0.24219-0.76172-1.0234-1.7461c-0.17969 0.39453-0.3125 0.82031-0.39062 1.2734zm1.0234 0.36328 1.8281-0.39453c0.097657-0.40234 0.15234-0.82812 0.16016-1.2773l-1.7578 0.94141zm-1.8516 2.2617 0.45703-1.4453-0.88281-0.92578c0.035157 0.73047 0.17969 1.5195 0.42578 2.3711zm0.88672 0.78906c1.0625-0.59375 1.8398-1.3359 2.3281-2.2344l-1.7422 0.375zm0.625-5.5703 0.87109-2.7539c-0.6875 0.38672-1.2461 0.83984-1.6836 1.3711zm1.0391 0.30469 1.2188-0.65234c-0.078125-0.58203-0.22266-1.1992-0.42578-1.8516zm0.28906 13.254 0.76172-0.23828 0.84375-1.8398c-0.42969 0.078125-0.85156 0.21484-1.2695 0.41016zm0.28516 1.0469 1.375 1.2695c0.38672-0.14844 0.76562-0.35156 1.1406-0.60156l-1.7812-0.89844zm-2.9141-0.22266 1.4453-0.45312 0.25391-1.2539c-0.57422 0.44922-1.1406 1.0195-1.6992 1.707zm-0.13672 1.1797c1.0938 0.53125 2.1484 0.74219 3.168 0.62891l-1.3086-1.2109zm4.9219-2.6797 2.7539-0.86719c-0.70703-0.33984-1.4023-0.53906-2.0859-0.59375zm0.34766 1.0273 1.2305 0.62109c0.43359-0.39844 0.85938-0.86719 1.2734-1.4102zm-0.34375 13.75-0.1875 0.77734 1.1406 1.668c0.15625-0.40625 0.25391-0.83594 0.30469-1.2969zm-1.0469-0.29297-1.7969 0.52344c-0.066406 0.41016-0.089844 0.83594-0.070313 1.2852l1.6875-1.0625zm1.6914-2.3828-0.35547 1.4727 0.94531 0.86328c-0.089844-0.72656-0.28516-1.5039-0.58984-2.3359zm-0.94141-0.72656c-1.0156 0.66406-1.7422 1.4609-2.168 2.3906l1.7109-0.49609zm-0.23438 5.6016-0.67578 2.8047c0.65625-0.42969 1.1836-0.92187 1.582-1.4805zm-1.0586-0.23438-1.168 0.73828c0.11719 0.57422 0.30469 1.1797 0.55078 1.8164zm25.355-13.766-0.72266-0.625-2.3945 0.32031c0.34766 0.38281 0.75 0.72656 1.2109 1.0273zm0.88281-0.96094 0.42188-2.2109c-0.39453-0.29688-0.83594-0.55469-1.3281-0.77344l0.21094 2.3867zm1.6094 3.1055-1.3711-1.1797-1.4297 0.54297c0.81641 0.29687 1.7539 0.51172 2.8008 0.63672zm1.2852-0.61719c-0.15234-1.4531-0.60547-2.6602-1.3594-3.6211l-0.40625 2.1055zm-5.8203-3.2891-2.6133-2.25c0.097656 0.94141 0.33594 1.7734 0.71094 2.5039zm0.82422-1.0078-0.14453-1.6523c-0.67969-0.1875-1.4219-0.31641-2.2344-0.39453zm-17.531 25.188-0.76172-0.24219-1.7461 1.0195c0.39453 0.18359 0.82031 0.31641 1.2734 0.39453zm0.36328-1.0234-0.39453-1.8281c-0.40234-0.097656-0.82812-0.15234-1.2773-0.16016l0.94141 1.7578zm2.2617 1.8516-1.4453-0.45703-0.92578 0.88281c0.73047-0.039062 1.5195-0.17969 2.3711-0.42578zm0.78906-0.88672c-0.58984-1.0625-1.3359-1.8398-2.2344-2.3281l0.37891 1.7422zm-5.5703-0.625-2.75-0.87109c0.38281 0.6875 0.83594 1.2461 1.3672 1.6836zm0.30859-1.0391-0.65625-1.2188c-0.58203 0.078124-1.1992 0.21875-1.8516 0.42578zm4.4688 12.898-0.53906-0.58984-2.0195 0.011719c0.25 0.35547 0.55078 0.68359 0.90625 0.97656zm0.82813-0.70312 0.57422-1.7812c-0.30078-0.28516-0.64453-0.54297-1.0273-0.77734l-0.0625 1.9922zm1.0312 2.7344-1.0195-1.1172-1.2461 0.30078c0.65234 0.33203 1.4062 0.60547 2.2656 0.81641zm1.1289-0.37109c0.019531-1.2188-0.23828-2.2617-0.76953-3.1367l-0.54687 1.6992zm-4.5117-3.3281-1.9492-2.1289c-0.011718 0.78516 0.10547 1.5 0.34375 2.1406zm0.78516-0.74609 0.042969-1.3828c-0.54297-0.22266-1.1484-0.41016-1.8164-0.55859zm8.4258-17.293-0.53906-0.58984-2.0234 0.011719c0.25 0.35547 0.55078 0.67969 0.90625 0.97656zm0.82422-0.70312 0.57422-1.7812c-0.30078-0.28516-0.64453-0.54688-1.0273-0.77734l-0.0625 1.9922zm1.0312 2.7344-1.0195-1.1172-1.2461 0.30078c0.65234 0.33203 1.4062 0.60547 2.2656 0.81641zm1.1289-0.375c0.019531-1.2148-0.23828-2.2578-0.76953-3.1328l-0.54688 1.6953zm-4.5117-3.3242-1.9492-2.1328c-0.011719 0.78906 0.10547 1.5 0.34375 2.1445zm0.78516-0.75 0.042969-1.3789c-0.54297-0.22266-1.1484-0.41016-1.8164-0.55859zm1.7656-7.6797 0.78516 0.13281 1.5859-1.2539c-0.41406-0.12891-0.85156-0.19922-1.3125-0.21484zm-0.21875 1.0625 0.64453 1.7578c0.41406 0.039062 0.84375 0.03125 1.2891-0.019531l-1.1797-1.6094zm-2.5-1.5195 1.4961 0.25 0.79688-1c-0.71875 0.13672-1.4844 0.38672-2.293 0.75zm-0.65625 0.98828c0.73438 0.96875 1.5781 1.6367 2.5391 1.9961l-0.61719-1.6719zm5.6016-0.15625 2.8477 0.48047c-0.47266-0.625-1.0039-1.1172-1.5859-1.4766zm-0.15625 1.0742 0.81641 1.1133c0.56641-0.16016 1.1562-0.38672 1.7734-0.67969zm-1.6992 17.473 0.78906 0.13281 1.582-1.2578c-0.41406-0.125-0.85156-0.19531-1.3125-0.21094zm-0.21875 1.0625 0.64453 1.7539c0.41406 0.042969 0.84375 0.035156 1.2891-0.019531l-1.1797-1.6094zm-2.4961-1.5195 1.4922 0.25 0.79687-1c-0.71875 0.13672-1.4805 0.38672-2.2891 0.75zm-0.66016 0.98828c0.73438 0.96875 1.582 1.6367 2.5391 1.9961l-0.61719-1.6719zm5.6016-0.15625 2.8477 0.48047c-0.47266-0.62891-1.0039-1.1211-1.5859-1.4766zm-0.15625 1.0703 0.81641 1.1172c0.56641-0.16016 1.1562-0.38672 1.7734-0.67969zm11.707-25.855 0.38281-0.70312-0.67188-1.9062c-0.25391 0.35156-0.46484 0.74219-0.62891 1.1719zm0.93359 0.55469 1.8711-0.042969c0.17188-0.375 0.30469-0.78125 0.40234-1.2227l-1.9062 0.58984zm-2.25 1.8633 0.72266-1.3281-0.6875-1.0781c-0.10156 0.72266-0.11328 1.5273-0.035157 2.4062zm0.71875 0.94531c1.1562-0.37891 2.0625-0.96094 2.7148-1.75l-1.7812 0.039062zm1.6758-5.3477 1.3828-2.5352c-0.74609 0.24219-1.3828 0.58594-1.9141 1.0195zm0.96484 0.49609 1.3203-0.40625c0.03125-0.58984 0.011719-1.2227-0.066407-1.8984zm1.6172 10.062 0.63281-0.48438 0.16406-2.0156c-0.375 0.21875-0.72656 0.49219-1.0508 0.81641zm0.625 0.88672 1.7266 0.72266c0.3125-0.27344 0.59766-0.58984 0.86328-0.95312l-1.9805-0.23438zm-2.8125 0.78906 1.2031-0.92188-0.19141-1.2656c-0.38672 0.62109-0.72656 1.3516-1.0117 2.1875zm0.27344 1.1562c1.2109 0.125 2.2734-0.039062 3.1914-0.49609l-1.6445-0.6875zm3.707-4.2031 2.293-1.7578c-0.78125-0.078125-1.5039-0.027344-2.1641 0.15625zm0.67578 0.84375 1.3711 0.16406c0.26953-0.52344 0.50781-1.1094 0.71484-1.7578z"/>
  <path d="m59.859 19.648c0 1.7266-2.6094 1.7266-2.6094 0 0-1.7227 2.6094-1.7227 2.6094 0" fill-rule="evenodd"/>
  <path d="m46.82 28.711c0 1.7266-2.6055 1.7266-2.6055 0 0-1.7266 2.6055-1.7266 2.6055 0" fill-rule="evenodd"/>
  <path d="m57.25 32.594c0 1.7266-2.6055 1.7266-2.6055 0s2.6055-1.7266 2.6055 0" fill-rule="evenodd"/>
  <path d="m53.34 40.359c0 1.7266-2.6094 1.7266-2.6094 0s2.6094-1.7266 2.6094 0" fill-rule="evenodd"/>
  <path d="m45.516 41.656c0 1.7227-2.6055 1.7227-2.6055 0 0-1.7266 2.6055-1.7266 2.6055 0" fill-rule="evenodd"/>
  <path d="m37.695 41.656c0 1.7227-2.6094 1.7227-2.6094 0 0-1.7266 2.6094-1.7266 2.6094 0" fill-rule="evenodd"/>
  <path d="m53.34 52.012c0 1.7227-2.6094 1.7227-2.6094 0 0-1.7266 2.6094-1.7266 2.6094 0" fill-rule="evenodd"/>
  <path d="m62.465 48.125c0 1.7266-2.6055 1.7266-2.6055 0 0-1.7227 2.6055-1.7227 2.6055 0" fill-rule="evenodd"/>
  <path d="m46.82 58.48c0 1.7266-2.6055 1.7266-2.6055 0 0-1.7227 2.6055-1.7227 2.6055 0" fill-rule="evenodd"/>
  <path d="m48.125 64.953c0 1.7266-2.6094 1.7266-2.6094 0s2.6094-1.7266 2.6094 0" fill-rule="evenodd"/>
  <path d="m59.859 58.48c0 1.7266-2.6094 1.7266-2.6094 0 0-1.7227 2.6094-1.7227 2.6094 0" fill-rule="evenodd"/>
  <path d="m71.59 23.535c0 1.7227-2.6055 1.7227-2.6055 0 0-1.7266 2.6055-1.7266 2.6055 0" fill-rule="evenodd"/>
  <path d="m75.5 37.773c0 1.7227-2.6055 1.7227-2.6055 0 0-1.7266 2.6055-1.7266 2.6055 0" fill-rule="evenodd"/>
  <path d="m71.59 48.125c0 1.7266-2.6055 1.7266-2.6055 0 0-1.7227 2.6055-1.7227 2.6055 0" fill-rule="evenodd"/>
  <path d="m82.02 40.359c0 1.7266-2.6055 1.7266-2.6055 0s2.6055-1.7266 2.6055 0" fill-rule="evenodd"/>
  <path d="m91.145 48.125c0 1.7266-2.6055 1.7266-2.6055 0 0-1.7227 2.6055-1.7227 2.6055 0" fill-rule="evenodd"/>
  <path d="m78.109 57.188c0 1.7266-2.6094 1.7266-2.6094 0s2.6094-1.7266 2.6094 0" fill-rule="evenodd"/>
  <path d="m66.375 64.953c0 1.7266-2.6055 1.7266-2.6055 0s2.6055-1.7266 2.6055 0" fill-rule="evenodd"/>
  <path d="m83.324 64.953c0 1.7266-2.6094 1.7266-2.6094 0s2.6094-1.7266 2.6094 0" fill-rule="evenodd"/>
  <path d="m76.805 67.543c0 1.7266-2.6055 1.7266-2.6055 0 0-1.7266 2.6055-1.7266 2.6055 0" fill-rule="evenodd"/>
  <path d="m70.285 76.602c0 1.7266-2.6055 1.7266-2.6055 0 0-1.7227 2.6055-1.7227 2.6055 0" fill-rule="evenodd"/>
  <path d="m68.984 83.074c0 1.7266-2.6094 1.7266-2.6094 0 0-1.7266 2.6094-1.7266 2.6094 0" fill-rule="evenodd"/>
  <path d="m62.465 75.309c0 1.7266-2.6055 1.7266-2.6055 0 0-1.7266 2.6055-1.7266 2.6055 0" fill-rule="evenodd"/>
  <path d="m54.645 80.488c0 1.7227-2.6094 1.7227-2.6094 0 0-1.7266 2.6094-1.7266 2.6094 0" fill-rule="evenodd"/>
 </g>
</svg>
